<?xml version="1.0" standalone="no"?>
<!DOCTYPE svg PUBLIC "-//W3C//DTD SVG 20010904//EN"
 "http://www.w3.org/TR/2001/REC-SVG-20010904/DTD/svg10.dtd">
<svg version="1.0" xmlns="http://www.w3.org/2000/svg"
 width="275.000000pt" height="183.000000pt" viewBox="0 0 275.000000 183.000000"
 preserveAspectRatio="xMidYMid meet">

<g transform="translate(0.000000,183.000000) scale(0.100000,-0.100000)"
fill="#000000" stroke="none">
<path d="M0 915 l0 -915 1375 0 1375 1 0 49 0 49 -42 10 -43 11 43 -5 c23 -3
42 -2 42 3 0 16 -182 32 -250 22 -77 -11 -119 -11 -75 0 18 5 4 6 -38 3 -63
-5 -67 -5 -61 13 4 14 3 16 -4 5 -8 -11 -24 -11 -96 -1 -47 7 -88 11 -91 9 -2
-3 51 -13 118 -22 154 -23 230 -37 224 -43 -3 -3 -34 0 -70 6 -36 7 -75 10
-88 8 -13 -2 12 -10 56 -17 44 -8 75 -16 69 -18 -6 -2 -66 6 -134 17 -68 11
-126 18 -128 15 -2 -2 6 -6 19 -9 13 -3 42 -10 64 -15 l40 -11 -50 6 c-27 3
-75 10 -105 15 -30 5 -86 13 -125 19 -38 5 -83 14 -100 20 -29 10 -28 10 10 6
150 -17 145 -17 75 0 -36 8 -79 14 -96 12 -23 -3 -30 0 -27 9 3 8 13 12 22 9
9 -2 41 -7 71 -10 43 -4 47 -3 20 3 -19 5 -57 12 -83 16 -27 3 -47 9 -44 11 3
3 55 -2 116 -11 61 -9 117 -14 124 -12 6 3 -4 6 -23 7 l-35 2 30 9 c22 5 13 7
-30 4 -47 -3 -53 -2 -30 5 23 7 14 8 -35 5 -41 -3 -56 -1 -40 4 21 6 17 9 -30
15 -30 5 -61 12 -69 16 -16 9 -5 13 64 25 40 8 40 8 13 17 -16 5 -28 14 -28
19 0 5 -12 10 -27 10 -22 1 -23 2 -8 6 15 4 9 9 -25 19 -24 7 -47 10 -50 7 -3
-3 1 -8 8 -10 6 -3 10 -9 7 -14 -3 -5 -1 -18 5 -29 8 -15 18 -19 38 -15 25 5
25 5 5 -4 -21 -10 -33 -41 -15 -41 4 0 8 -9 9 -20 1 -11 0 -20 -1 -20 -2 0
-25 50 -51 110 -27 61 -53 110 -59 110 -6 0 0 6 14 13 22 11 25 19 23 57 -5
95 -8 116 -19 134 -9 15 -14 16 -30 6 -15 -9 -20 -26 -22 -82 -1 -38 -9 -83
-18 -100 -18 -35 -14 -44 15 -28 16 8 21 8 21 -1 0 -6 -9 -13 -20 -16 -31 -8
-24 -18 21 -33 23 -8 37 -16 30 -18 -6 -2 -9 -7 -6 -12 3 -4 -3 -6 -13 -3 -10
2 -40 -4 -67 -15 -28 -11 -67 -22 -89 -26 -21 -4 -36 -10 -33 -12 3 -3 33 2
67 10 34 9 71 16 82 16 17 0 19 -2 7 -16 -11 -13 -9 -15 17 -9 23 4 25 3 9 -4
-11 -5 -31 -10 -45 -11 l-25 -2 25 -7 c24 -7 24 -7 -9 -14 -47 -10 -86 -7 -46
3 30 8 30 8 3 9 -14 0 -28 4 -31 9 -2 4 -2 1 -1 -6 2 -7 -8 -12 -24 -13 -17
-1 -7 -6 28 -14 53 -11 54 -12 20 -16 -19 -2 6 -5 55 -6 50 0 104 -6 120 -12
28 -10 28 -11 -12 -6 -116 14 -122 13 -48 -4 107 -25 57 -26 -79 -1 -124 23
-176 25 -101 4 l50 -13 -44 4 c-30 2 -40 1 -30 -6 12 -7 12 -9 -2 -9 -11 0
-22 21 -38 73 -11 39 -21 77 -21 84 0 6 26 19 58 29 63 19 68 21 80 23 4 0 16
15 26 31 15 26 16 33 4 47 -10 13 -10 17 0 20 7 3 12 24 12 58 0 34 5 57 15
65 8 7 12 16 9 21 -3 5 1 6 9 3 8 -3 18 -1 21 5 4 5 -3 12 -14 16 -25 8 -26
25 -2 25 14 0 15 2 2 9 -8 6 -19 7 -25 3 -5 -4 -41 -7 -78 -7 -51 0 -72 -5
-81 -16 -10 -15 -152 -45 -238 -51 -19 -2 -28 -8 -28 -19 0 -19 46 -31 88 -23
26 5 29 2 40 -34 7 -22 12 -44 12 -51 0 -13 -61 -15 -75 -3 -20 18 -123 43
-149 36 -25 -6 -30 -14 -27 -41 1 -8 -5 -10 -14 -7 -8 3 -15 2 -15 -4 0 -6 4
-12 10 -14 6 -2 4 -52 -6 -138 -18 -162 -22 -176 -24 -90 -2 36 -4 88 -5 115
-2 28 -3 71 -4 98 -1 41 -4 47 -23 47 -20 0 -20 1 -4 19 17 19 19 57 4 53 -5
-1 -20 -2 -34 -2 -16 0 -23 -4 -18 -11 4 -8 0 -8 -15 0 -11 7 -21 18 -21 26 0
11 -8 10 -35 -6 -27 -16 -35 -28 -35 -49 0 -16 -5 -30 -11 -32 -8 -3 -11 -36
-10 -97 l2 -93 -28 5 -28 6 30 -14 c17 -8 23 -14 15 -15 -13 0 -13 -1 0 -10 8
-5 12 -11 9 -14 -3 -3 -32 8 -65 24 -54 27 -56 30 -29 31 25 1 21 3 -20 14
l-50 14 46 -6 c28 -3 49 -1 53 6 5 7 1 9 -8 5 -9 -3 -23 -3 -32 0 -15 6 -15 8
-1 24 23 25 7 46 -29 39 -16 -4 -23 -4 -16 -1 17 8 5 24 -13 17 -24 -9 -17 13
8 25 18 9 15 9 -18 5 -22 -3 -46 -10 -52 -16 -9 -6 -13 -6 -13 1 0 16 23 29
65 37 61 10 106 37 95 55 -6 9 -10 10 -10 3 0 -7 -17 -15 -37 -19 -21 -4 -46
-11 -55 -16 -12 -5 -18 -5 -18 2 0 5 -4 10 -10 10 -5 0 -9 -5 -7 -12 3 -14
-92 -37 -127 -31 -22 5 -24 9 -19 37 8 41 11 43 22 15 l10 -24 0 23 c1 16 10
26 31 33 19 7 30 18 30 29 0 10 6 21 13 23 27 11 -22 6 -128 -14 -164 -30
-227 -40 -231 -37 -10 11 -13 68 -3 68 8 0 8 4 1 13 -16 19 -15 339 1 349 9 6
9 8 0 8 -9 0 -13 19 -13 60 0 59 0 59 28 55 15 -2 59 -6 97 -9 39 -3 80 -8 93
-10 12 -3 22 -1 22 5 0 5 -4 9 -10 9 -6 0 -10 51 -10 132 0 132 7 165 16 67 4
-49 14 -82 14 -46 0 10 4 17 9 17 5 0 12 10 14 23 2 12 5 -9 7 -48 2 -58 4
-64 10 -35 3 19 5 58 3 85 -4 47 -3 49 11 31 16 -20 16 -20 16 0 0 11 -4 24
-9 30 -5 5 -5 18 -1 29 7 16 9 17 9 3 1 -9 7 -21 15 -25 8 -4 16 -21 19 -38 2
-17 5 -1 6 35 2 49 5 59 11 40 4 -14 9 -20 11 -15 1 6 5 -10 9 -35 l7 -45 1
59 c3 89 14 60 22 -56 l7 -103 2 108 c0 64 5 107 11 107 6 0 11 -21 11 -47 1
-41 2 -44 8 -18 6 26 8 21 16 -35 l10 -65 5 90 c4 50 7 78 8 64 2 -28 27 -46
36 -26 3 7 5 -50 4 -126 0 -76 2 -140 5 -143 5 -5 16 138 18 244 1 39 5 72 10
72 4 0 16 3 26 6 15 5 16 4 3 -6 -13 -10 -12 -11 3 -6 10 3 33 6 50 7 30 1 30
1 7 8 -22 6 -20 8 18 14 24 4 47 5 52 2 5 -3 87 9 182 27 95 18 162 35 148 37
-39 6 97 29 145 25 32 -4 36 -2 20 6 -16 8 -11 9 20 5 28 -4 36 -3 26 4 -11 7
-1 8 30 5 30 -3 38 -2 24 4 -16 8 -10 11 33 21 65 14 82 14 62 1 -12 -8 -12
-10 5 -9 11 0 38 4 60 8 l40 9 -45 2 c-41 2 -36 4 45 20 50 10 108 19 131 19
22 1 44 5 50 10 5 4 32 11 59 14 32 4 43 3 30 -3 -11 -5 -32 -9 -47 -9 -15 -1
-30 -6 -34 -13 -5 -7 -2 -9 7 -6 8 3 86 18 174 34 138 25 154 30 115 34 l-45
5 45 7 c27 4 47 3 51 -3 4 -7 32 -5 82 5 42 9 85 16 96 16 11 0 23 5 26 10 4
7 -9 9 -37 5 -35 -4 -31 -2 17 10 94 23 156 35 179 34 41 -1 -15 -18 -63 -18
-32 -1 -42 -4 -34 -12 7 -7 34 -6 93 5 45 9 84 16 86 16 2 0 4 16 4 35 l0 35
-1375 0 -1375 0 0 -915z m2367 789 c-3 -3 -12 -4 -19 -1 -8 3 -5 6 6 6 11 1
17 -2 13 -5z m-1110 -210 c-3 -3 -12 -4 -19 -1 -8 3 -5 6 6 6 11 1 17 -2 13
-5z m-550 -116 c-3 -8 -6 -5 -6 6 -1 11 2 17 5 13 3 -3 4 -12 1 -19z m-266
-143 c4 11 7 -5 7 -35 0 -42 -2 -49 -8 -30 -4 14 -8 20 -9 14 -1 -7 -10 -14
-21 -17 -25 -6 -27 18 -2 32 9 6 12 11 6 11 -13 0 -27 40 -14 40 5 0 11 -8 13
-17 3 -10 6 20 8 67 l3 85 5 -85 c3 -47 9 -76 12 -65z m-64 63 c-2 -13 -4 -3
-4 22 0 25 2 35 4 23 2 -13 2 -33 0 -45z m-17 12 c0 -5 -4 -10 -10 -10 -5 0
-10 5 -10 10 0 6 5 10 10 10 6 0 10 -4 10 -10z m-93 -42 c-3 -8 -6 -5 -6 6 -1
11 2 17 5 13 3 -3 4 -12 1 -19z m85 0 c-7 -7 -12 -8 -12 -2 0 14 12 26 19 19
2 -3 -1 -11 -7 -17z m32 -13 c-4 -8 -8 -15 -10 -15 -2 0 -4 7 -4 15 0 8 4 15
10 15 5 0 7 -7 4 -15z m66 -161 c0 -8 -5 -12 -10 -9 -6 4 -8 11 -5 16 9 14 15
11 15 -7z m1185 -464 c3 -5 1 -10 -4 -10 -6 0 -11 5 -11 10 0 6 2 10 4 10 3 0
8 -4 11 -10z m-145 -107 c0 -52 -3 -59 -25 -70 -28 -13 -28 -13 -49 48 -22 62
-21 67 22 72 20 2 40 4 45 5 4 1 7 -24 7 -55z m147 20 c-3 -10 -5 -4 -5 12 0
17 2 24 5 18 2 -7 2 -21 0 -30z m-1157 -53 c0 -5 -4 -10 -10 -10 -5 0 -10 5
-10 10 0 6 5 10 10 10 6 0 10 -4 10 -10z m-48 -52 c2 -21 0 -38 -4 -38 -4 0
-8 21 -7 48 1 52 6 48 11 -10z m-26 -15 c-3 -3 -13 -2 -23 2 -17 8 -17 8 0 12
19 5 23 23 5 23 -9 0 -8 4 2 10 12 7 16 4 18 -16 2 -14 1 -28 -2 -31z m-49
-20 c-2 -16 -4 -5 -4 22 0 28 2 40 4 28 2 -13 2 -35 0 -50z m128 33 c12 -12
12 -15 1 -19 -8 -3 -16 2 -19 14 -6 23 -1 24 18 5z m824 -111 l75 -28 -64 -18
c-56 -15 -73 -16 -125 -5 l-60 12 3 34 c6 70 8 71 55 51 23 -10 76 -30 116
-46z m76 -60 c-16 -8 -41 -14 -55 -14 -22 0 -21 2 10 14 48 19 86 18 45 0z
m-612 -2 c-7 -2 -19 -2 -25 0 -7 3 -2 5 12 5 14 0 19 -2 13 -5z m480 -24 c71
-17 93 -25 80 -31 -11 -5 0 -7 27 -4 25 3 38 2 30 -1 -10 -4 1 -11 30 -20 l45
-13 -55 4 c-30 3 -47 2 -37 -1 31 -8 18 -25 -15 -19 -30 5 -29 4 7 -9 l40 -15
-50 4 c-81 7 -232 39 -244 51 -3 4 19 5 49 2 l55 -6 -47 11 c-27 5 -48 15 -48
22 0 27 14 57 24 53 6 -2 55 -15 109 -28z m502 12 l-20 -8 20 -5 c19 -5 19 -6
-1 -7 -12 0 -24 6 -28 14 -4 11 2 15 22 14 24 0 24 -1 7 -8z m-949 -16 c66
-17 87 -31 32 -21 -35 6 -112 35 -96 36 4 0 33 -7 64 -15z m657 -5 c4 -16 1
-20 -11 -16 -9 2 -32 8 -51 11 -40 9 -24 25 25 25 24 0 33 -5 37 -20z m240 -7
c-7 -2 -21 -2 -30 0 -10 3 -4 5 12 5 17 0 24 -2 18 -5z m64 -9 c-3 -3 -12 -4
-19 -1 -8 3 -5 6 6 6 11 1 17 -2 13 -5z m136 -1 c-7 -2 -21 -2 -30 0 -10 3 -4
5 12 5 17 0 24 -2 18 -5z m-1046 -25 c16 -27 12 -40 -10 -33 -12 4 -30 7 -39
8 -9 1 -14 5 -12 9 3 4 19 5 37 2 28 -4 29 -3 10 5 -26 12 -30 21 -9 21 8 0
18 -6 23 -12z m1020 -14 c-3 -3 -12 -4 -19 -1 -8 3 -5 6 6 6 11 1 17 -2 13 -5z
m-522 -63 c39 -12 12 -13 -45 -1 -25 6 -58 12 -75 14 -49 6 -115 26 -115 35 0
7 168 -27 235 -48z m318 52 c-7 -2 -21 -2 -30 0 -10 3 -4 5 12 5 17 0 24 -2
18 -5z m-232 -21 c-7 -2 -18 1 -23 6 -8 8 -4 9 13 5 13 -4 18 -8 10 -11z m159
8 c20 -6 21 -8 5 -8 -11 0 -29 3 -40 8 -25 11 1 11 35 0z m1025 -20 c27 -7 27
-8 5 -8 -14 0 -38 4 -55 8 -27 7 -27 8 -5 8 14 0 39 -4 55 -8z m-1406 -22 c13
-5 22 -10 20 -12 -7 -7 -103 14 -114 25 -11 12 51 3 94 -13z m664 15 c-7 -2
-19 -2 -25 0 -7 3 -2 5 12 5 14 0 19 -2 13 -5z m635 0 c-10 -2 -28 -2 -40 0
-13 2 -5 4 17 4 22 1 32 -1 23 -4z m-433 -28 c33 -7 86 -16 118 -20 31 -3 57
-11 57 -16 0 -6 -8 -8 -17 -5 -10 3 -74 15 -143 26 -69 11 -141 25 -160 30
-53 14 69 2 145 -15z m562 9 c-3 -3 -12 -4 -19 -1 -8 3 -5 6 6 6 11 1 17 -2
13 -5z m-724 -11 c-7 -2 -21 -2 -30 0 -10 3 -4 5 12 5 17 0 24 -2 18 -5z m652
-3 c13 -5 14 -9 5 -9 -8 0 -24 4 -35 9 -13 5 -14 9 -5 9 8 0 24 -4 35 -9z
m-556 -11 c75 -12 96 -18 89 -24 -5 -5 -159 23 -167 30 -6 7 4 6 78 -6z m421
-21 c16 -5 6 -6 -29 -2 -30 3 -62 9 -70 15 -18 10 58 1 99 -13z m68 15 c-10
-2 -26 -2 -35 0 -10 3 -2 5 17 5 19 0 27 -2 18 -5z m49 -9 c-3 -3 -12 -4 -19
-1 -8 3 -5 6 6 6 11 1 17 -2 13 -5z m-410 -20 c-3 -3 -12 -4 -19 -1 -8 3 -5 6
6 6 11 1 17 -2 13 -5z m60 0 c-3 -3 -12 -4 -19 -1 -8 3 -5 6 6 6 11 1 17 -2
13 -5z m306 -1 c-7 -2 -21 -2 -30 0 -10 3 -4 5 12 5 17 0 24 -2 18 -5z m-470
-10 c-7 -2 -19 -2 -25 0 -7 3 -2 5 12 5 14 0 19 -2 13 -5z m404 -9 c-3 -3 -12
-4 -19 -1 -8 3 -5 6 6 6 11 1 17 -2 13 -5z m-310 -10 c-3 -3 -12 -4 -19 -1 -8
3 -5 6 6 6 11 1 17 -2 13 -5z m50 0 c-3 -3 -12 -4 -19 -1 -8 3 -5 6 6 6 11 1
17 -2 13 -5z"/>
<path d="M1178 233 c6 -2 18 -2 25 0 6 3 1 5 -13 5 -14 0 -19 -2 -12 -5z"/>
<path d="M1238 223 c7 -3 16 -2 19 1 4 3 -2 6 -13 5 -11 0 -14 -3 -6 -6z"/>
<path d="M1158 213 c6 -2 18 -2 25 0 6 3 1 5 -13 5 -14 0 -19 -2 -12 -5z"/>
<path d="M1208 203 c6 -2 18 -2 25 0 6 3 1 5 -13 5 -14 0 -19 -2 -12 -5z"/>
<path d="M1308 183 c6 -2 18 -2 25 0 6 3 1 5 -13 5 -14 0 -19 -2 -12 -5z"/>
<path d="M1228 173 c7 -3 16 -2 19 1 4 3 -2 6 -13 5 -11 0 -14 -3 -6 -6z"/>
<path d="M2530 1730 c-12 -8 -11 -10 8 -10 12 0 22 5 22 10 0 13 -11 13 -30 0z"/>
<path d="M1873 1603 c9 -2 25 -2 35 0 9 3 1 5 -18 5 -19 0 -27 -2 -17 -5z"/>
<path d="M1788 1583 c7 -3 16 -2 19 1 4 3 -2 6 -13 5 -11 0 -14 -3 -6 -6z"/>
<path d="M1348 1503 c7 -3 16 -2 19 1 4 3 -2 6 -13 5 -11 0 -14 -3 -6 -6z"/>
<path d="M938 1423 c7 -3 16 -2 19 1 4 3 -2 6 -13 5 -11 0 -14 -3 -6 -6z"/>
<path d="M613 1315 c0 -22 2 -30 4 -17 2 12 2 30 0 40 -3 9 -5 -1 -4 -23z"/>
<path d="M740 1334 c0 -8 5 -12 10 -9 6 3 10 10 10 16 0 5 -4 9 -10 9 -5 0
-10 -7 -10 -16z"/>
<path d="M497 1200 c-3 -11 -1 -23 4 -26 5 -3 9 6 9 20 0 31 -6 34 -13 6z"/>
<path d="M2566 1135 c4 -8 11 -15 16 -15 6 0 5 6 -2 15 -7 8 -14 15 -16 15 -2
0 -1 -7 2 -15z"/>
<path d="M2678 1133 c7 -3 16 -2 19 1 4 3 -2 6 -13 5 -11 0 -14 -3 -6 -6z"/>
<path d="M500 1119 c0 -6 -6 -9 -13 -6 -8 3 -14 -1 -14 -8 0 -10 5 -11 19 -4
16 9 25 29 13 29 -3 0 -5 -5 -5 -11z"/>
<path d="M2190 1112 c0 -15 11 -21 27 -15 12 5 12 7 1 14 -17 11 -28 11 -28 1z"/>
<path d="M612 1070 c0 -14 2 -19 5 -12 2 6 2 18 0 25 -3 6 -5 1 -5 -13z"/>
<path d="M540 1070 c0 -5 5 -10 10 -10 6 0 10 5 10 10 0 6 -4 10 -10 10 -5 0
-10 -4 -10 -10z"/>
<path d="M782 1060 c0 -14 2 -19 5 -12 2 6 2 18 0 25 -3 6 -5 1 -5 -13z"/>
<path d="M740 1060 c0 -5 5 -10 11 -10 5 0 7 5 4 10 -3 6 -8 10 -11 10 -2 0
-4 -4 -4 -10z"/>
<path d="M784 835 c0 -110 2 -156 3 -103 2 53 2 143 0 200 -1 57 -3 13 -3 -97z"/>
<path d="M287 1008 c-7 -4 -8 -8 -2 -8 7 0 10 -69 9 -195 -1 -136 2 -195 10
-195 6 0 88 12 181 25 94 14 182 25 198 25 l27 0 0 163 0 164 -206 14 c-113 8
-211 11 -217 7z m98 -339 c10 -15 2 -19 -24 -12 -17 4 -19 8 -9 14 18 12 26
11 33 -2z"/>
<path d="M1377 863 c-4 -3 -7 -13 -7 -22 1 -13 3 -13 11 2 11 19 8 33 -4 20z"/>
<path d="M1464 845 c3 -8 -3 -16 -14 -20 -18 -6 -21 -20 -7 -42 11 -18 -37
-17 -51 0 -9 10 -7 20 5 38 15 21 15 23 1 11 -14 -11 -22 -11 -47 2 -17 9 -32
12 -36 7 -3 -5 -1 -12 4 -15 11 -7 2 -46 -10 -46 -5 0 -9 -5 -9 -11 0 -5 6 -7
13 -3 9 6 9 4 -1 -8 -11 -14 -7 -16 39 -12 28 2 60 6 70 9 11 4 19 3 19 -2 0
-5 14 -10 32 -11 18 -2 35 -6 38 -10 10 -14 132 -12 146 2 11 12 11 15 -3 20
-9 4 -25 4 -35 0 -18 -5 -18 -4 -8 16 8 15 8 20 1 16 -6 -4 -11 -2 -11 4 0 6
-4 8 -10 5 -5 -3 -10 2 -10 12 0 15 -2 16 -10 3 -9 -13 -10 -13 -10 1 0 8 5
20 12 27 16 16 2 28 -15 13 -8 -6 -21 -9 -28 -6 -8 2 -27 7 -42 9 -22 4 -27 2
-23 -9z"/>
<path d="M1910 720 c-43 -22 -100 -33 -100 -20 0 6 9 10 19 10 11 0 23 5 27
11 5 9 -7 10 -42 5 -47 -7 -86 -26 -53 -26 8 0 21 -9 29 -21 8 -11 21 -28 28
-37 11 -15 12 -14 6 8 -6 21 -4 23 7 13 8 -6 22 -25 32 -42 l18 -31 -38 0
c-28 0 -34 -3 -23 -10 8 -5 10 -10 4 -10 -16 0 -24 -23 -17 -49 4 -17 13 -21
48 -21 30 0 45 -5 49 -16 9 -23 8 -24 -21 -25 -16 -1 -39 -5 -53 -9 -19 -7
-11 -8 31 -8 30 1 60 -2 66 -5 6 -4 13 -1 16 5 6 19 32 -5 55 -53 11 -22 22
-37 25 -32 2 4 -20 52 -51 106 -40 73 -52 101 -43 110 6 6 11 17 11 25 0 8 12
26 26 39 16 14 23 30 20 39 -3 9 -6 22 -6 29 0 27 -33 34 -70 15z m-9 -59 c-6
-10 -7 -21 -4 -25 3 -3 2 -6 -4 -6 -12 0 -24 36 -15 44 3 3 11 6 19 6 10 0 11
-5 4 -19z m49 -191 c0 -6 -7 -10 -15 -10 -8 0 -15 2 -15 4 0 2 -3 12 -7 21 -5
15 -3 16 15 6 12 -7 22 -16 22 -21z"/>
<path d="M813 693 c9 -2 23 -2 30 0 6 3 -1 5 -18 5 -16 0 -22 -2 -12 -5z"/>
<path d="M898 693 c12 -2 32 -2 45 0 12 2 2 4 -23 4 -25 0 -35 -2 -22 -4z"/>
<path d="M1028 693 c6 -2 18 -2 25 0 6 3 1 5 -13 5 -14 0 -19 -2 -12 -5z"/>
<path d="M1200 689 c0 -3 -71 -7 -157 -9 -87 -1 -178 -5 -203 -10 -27 -5 34
-6 155 -3 110 4 212 6 227 5 38 -2 44 15 8 20 -17 3 -30 1 -30 -3z"/>
<path d="M1348 693 c17 -2 47 -2 65 0 17 2 3 4 -33 4 -36 0 -50 -2 -32 -4z"/>
<path d="M1343 673 c32 -2 81 -2 110 0 29 2 3 3 -58 3 -60 0 -84 -1 -52 -3z"/>
<path d="M2045 673 c-36 -9 -38 -21 -3 -29 18 -4 41 -7 51 -5 10 1 66 -2 125
-8 59 -6 166 -13 237 -17 72 -3 131 -7 133 -9 11 -10 -123 -26 -182 -22 -55 4
-62 4 -31 -3 22 -5 60 -9 85 -10 25 0 52 -5 60 -10 20 -13 -33 -13 -124 0 -38
6 -73 7 -77 3 -5 -5 2 -9 14 -9 81 -5 147 -18 147 -30 0 -16 -76 -20 -82 -4
-2 6 -31 3 -74 -6 -54 -11 -92 -12 -150 -6 -44 5 -99 7 -123 4 -35 -3 -47 -1
-58 14 -12 17 -13 17 -13 -2 0 -18 7 -21 53 -23 28 -1 81 -6 117 -11 36 -5 86
-10 112 -10 73 0 84 -8 52 -37 -14 -13 -24 -26 -22 -28 5 -5 379 -44 431 -45
l27 0 0 138 0 139 -47 0 c-27 0 -61 3 -76 7 -21 5 -27 3 -22 -5 5 -7 1 -9 -12
-5 -11 3 -124 7 -251 9 -127 1 -224 5 -214 10 10 4 3 6 -20 4 -20 -2 -34 1
-32 5 5 8 1 9 -31 1z m595 -83 c0 -5 -11 -10 -24 -10 -13 0 -33 -3 -43 -6 -12
-5 -15 -4 -8 4 6 6 21 12 35 15 14 2 28 5 33 6 4 0 7 -3 7 -9z m77 -16 c-3 -3
-12 -4 -19 -1 -8 3 -5 6 6 6 11 1 17 -2 13 -5z m-80 -10 c-3 -3 -12 -4 -19 -1
-8 3 -5 6 6 6 11 1 17 -2 13 -5z"/>
<path d="M1960 589 c0 -5 5 -7 10 -4 6 3 10 8 10 11 0 2 -4 4 -10 4 -5 0 -10
-5 -10 -11z"/>
<path d="M2225 580 c-3 -5 -2 -10 4 -10 5 0 13 5 16 10 3 6 2 10 -4 10 -5 0
-13 -4 -16 -10z"/>
<path d="M980 570 c-9 -6 -10 -10 -3 -10 6 0 15 5 18 10 8 12 4 12 -15 0z"/>
<path d="M2208 534 c6 -3 9 -11 5 -16 -4 -8 2 -9 18 -5 13 4 35 7 48 7 38 0
21 7 -34 13 -27 4 -44 4 -37 1z"/>
<path d="M808 513 c7 -3 16 -2 19 1 4 3 -2 6 -13 5 -11 0 -14 -3 -6 -6z"/>
<path d="M1595 349 c-4 -6 -12 -8 -19 -6 -6 3 -20 -1 -29 -8 -16 -11 -14 -13
10 -13 32 0 63 14 63 28 0 13 -17 13 -25 -1z"/>
<path d="M1595 315 c-16 -8 -23 -14 -15 -14 8 0 29 6 45 14 17 7 23 13 15 13
-8 0 -28 -6 -45 -13z"/>
<path d="M1498 313 c7 -3 16 -2 19 1 4 3 -2 6 -13 5 -11 0 -14 -3 -6 -6z"/>
<path d="M1928 313 c7 -3 16 -2 19 1 4 3 -2 6 -13 5 -11 0 -14 -3 -6 -6z"/>
<path d="M1490 280 c0 -14 6 -20 23 -19 13 0 17 3 8 6 -10 4 -5 10 15 19 l29
12 -37 1 c-32 1 -38 -2 -38 -19z"/>
<path d="M1968 283 c6 -2 18 -2 25 0 6 3 1 5 -13 5 -14 0 -19 -2 -12 -5z"/>
<path d="M2413 273 c9 -2 23 -2 30 0 6 3 -1 5 -18 5 -16 0 -22 -2 -12 -5z"/>
<path d="M1910 255 c-34 -8 -45 -13 -28 -14 14 -1 35 -4 45 -7 14 -5 15 -4 4
4 -10 7 0 13 40 20 30 5 41 10 24 9 -16 0 -55 -5 -85 -12z"/>
<path d="M2065 260 c-13 -6 -15 -9 -5 -9 8 0 22 4 30 9 18 12 2 12 -25 0z"/>
<path d="M2188 253 c7 -3 16 -2 19 1 4 3 -2 6 -13 5 -11 0 -14 -3 -6 -6z"/>
<path d="M2415 250 c-19 -8 -19 -9 3 -9 12 -1 22 4 22 9 0 6 -1 10 -2 9 -2 0
-12 -4 -23 -9z"/>
<path d="M2703 253 c9 -2 25 -2 35 0 9 3 1 5 -18 5 -19 0 -27 -2 -17 -5z"/>
<path d="M2133 243 c9 -2 23 -2 30 0 6 3 -1 5 -18 5 -16 0 -22 -2 -12 -5z"/>
<path d="M2198 233 c12 -2 30 -2 40 0 9 3 -1 5 -23 4 -22 0 -30 -2 -17 -4z"/>
<path d="M2295 230 l-30 -8 30 0 c17 0 39 3 50 8 l20 9 -20 -1 c-11 0 -33 -4
-50 -8z"/>
<path d="M2478 233 c6 -2 18 -2 25 0 6 3 1 5 -13 5 -14 0 -19 -2 -12 -5z"/>
<path d="M2728 233 c7 -3 16 -2 19 1 4 3 -2 6 -13 5 -11 0 -14 -3 -6 -6z"/>
<path d="M2018 223 c6 -2 18 -2 25 0 6 3 1 5 -13 5 -14 0 -19 -2 -12 -5z"/>
<path d="M2365 220 l-30 -8 30 0 c17 0 44 4 60 8 l30 8 -30 0 c-16 0 -43 -4
-60 -8z"/>
<path d="M2565 215 c14 -11 33 -14 65 -11 36 4 39 3 15 -3 -16 -5 -45 -9 -64
-10 -19 0 -31 -4 -28 -7 8 -8 197 17 197 26 0 4 -37 6 -82 5 -46 0 -92 3 -103
8 -20 8 -20 8 0 -8z"/>
<path d="M1543 213 c9 -2 23 -2 30 0 6 3 -1 5 -18 5 -16 0 -22 -2 -12 -5z"/>
<path d="M2488 213 c7 -3 16 -2 19 1 4 3 -2 6 -13 5 -11 0 -14 -3 -6 -6z"/>
<path d="M2433 203 c9 -2 23 -2 30 0 6 3 -1 5 -18 5 -16 0 -22 -2 -12 -5z"/>
<path d="M2228 193 c6 -2 18 -2 25 0 6 3 1 5 -13 5 -14 0 -19 -2 -12 -5z"/>
<path d="M2378 193 c7 -3 16 -2 19 1 4 3 -2 6 -13 5 -11 0 -14 -3 -6 -6z"/>
<path d="M2493 193 c9 -2 25 -2 35 0 9 3 1 5 -18 5 -19 0 -27 -2 -17 -5z"/>
<path d="M2283 183 c9 -2 23 -2 30 0 6 3 -1 5 -18 5 -16 0 -22 -2 -12 -5z"/>
<path d="M2428 183 c7 -3 16 -2 19 1 4 3 -2 6 -13 5 -11 0 -14 -3 -6 -6z"/>
<path d="M2655 181 c-27 -7 -24 -8 28 -15 32 -5 61 -6 64 -2 4 3 -11 7 -33 7
l-39 2 40 7 40 7 -35 0 c-19 1 -48 -3 -65 -6z"/>
<path d="M2228 173 c7 -3 16 -2 19 1 4 3 -2 6 -13 5 -11 0 -14 -3 -6 -6z"/>
<path d="M2358 173 c6 -2 18 -2 25 0 6 3 1 5 -13 5 -14 0 -19 -2 -12 -5z"/>
<path d="M2508 173 c7 -3 16 -2 19 1 4 3 -2 6 -13 5 -11 0 -14 -3 -6 -6z"/>
<path d="M2428 163 c6 -2 18 -2 25 0 6 3 1 5 -13 5 -14 0 -19 -2 -12 -5z"/>
<path d="M2578 163 c6 -2 18 -2 25 0 6 3 1 5 -13 5 -14 0 -19 -2 -12 -5z"/>
<path d="M2358 153 c7 -3 16 -2 19 1 4 3 -2 6 -13 5 -11 0 -14 -3 -6 -6z"/>
<path d="M2498 153 c6 -2 18 -2 25 0 6 3 1 5 -13 5 -14 0 -19 -2 -12 -5z"/>
<path d="M2648 153 c7 -3 16 -2 19 1 4 3 -2 6 -13 5 -11 0 -14 -3 -6 -6z"/>
<path d="M2140 140 c14 -4 36 -8 50 -8 22 0 22 1 -5 8 -16 4 -39 8 -50 8 -16
0 -15 -2 5 -8z"/>
<path d="M2703 143 c9 -2 25 -2 35 0 9 3 1 5 -18 5 -19 0 -27 -2 -17 -5z"/>
<path d="M2108 123 c6 -2 18 -2 25 0 6 3 1 5 -13 5 -14 0 -19 -2 -12 -5z"/>
<path d="M2253 123 c9 -2 23 -2 30 0 6 3 -1 5 -18 5 -16 0 -22 -2 -12 -5z"/>
</g>
</svg>
